# xmcd
#
# Track frame offsets:
#  150
#  23155
#  46467
#  69412
#  93209
#  119012
#  150660
#  173178
#  197130
#  216015
#  234426
#  259042
#  275883
#
# Disc length: 3932 seconds
#
# Revision: 0
# Processed by: cddbd v1.5.1PL2 Copyright (c) Steve Scherf et al.
# Submitted via: Collectorz.com_Music_Collector 6.10
#
DISCID=b80f5a0d
DTITLE=Lucky Oceans - Secret Steel
DYEAR=2005
DGENRE=Blues Guitar -  Blues Pedal Steel
TTITLE0=Secret Steel
TTITLE1=First Flight
TTITLE2=Two Trains
TTITLE3=The Banks Of The Ponchartrain
TTITLE4=In The Stillness Of The Night
TTITLE5=Earl Grey's Magnificent Tickle
TTITLE6=Woodwork
TTITLE7=Weisenheimer
TTITLE8=Junior's Breakdown
TTITLE9=Neptune's Dream
TTITLE10=Funk Indeed
TTITLE11=I Want Someone To Tell Me
TTITLE12=Leela's Long Winter
EXTD=
EXTT0=
EXTT1=
EXTT2=
EXTT3=
EXTT4=
EXTT5=
EXTT6=
EXTT7=
EXTT8=
EXTT9=
EXTT10=
EXTT11=
EXTT12=
PLAYORDER=
